<?xml version="1.0" standalone="no"?>
<!DOCTYPE svg PUBLIC "-//W3C//DTD SVG 20010904//EN" "http://www.w3.org/TR/2001/REC-SVG-20010904/DTD/svg10.dtd">
<!-- Created using Krita: https://krita.org -->
<svg xmlns="http://www.w3.org/2000/svg" 
    xmlns:xlink="http://www.w3.org/1999/xlink"
    xmlns:krita="http://krita.org/namespaces/svg/krita"
    xmlns:sodipodi="http://sodipodi.sourceforge.net/DTD/sodipodi-0.dtd"
    width="1000pt"
    height="500pt"
    viewBox="0 0 1000 500">
<defs/>
<path id="shape0" transform="matrix(0.999999948684474 0 0 0.999999948684474 625.164029935388 206.884789715627)" fill="#122021" fill-rule="evenodd" stroke="#000000" stroke-opacity="0" stroke-width="0" stroke-linecap="square" stroke-linejoin="bevel" d="M14.7546 286.428L19.629 183.152C126.757 157.006 113.095 160.022 161.456 160.547C200.25 163.262 252.616 159.678 260.214 175.158C264.012 182.898 267.439 197.713 258.044 209.79C249.978 209.781 243.691 194.757 241.447 191.027C235.79 183.185 247.055 197.318 235.186 187.589C236.106 191.296 236.694 217.132 259.926 216.36C283.776 204.009 281.553 152.175 214.078 148.188C79.1293 140.213 21.4692 186.219 20.8558 171.497C20.4468 161.682 18.4068 84.8355 19.8022 46.6898C39.0611 40.1063 82.9894 38.2657 151.587 41.1678C158.653 22.1027 165.43 11.0464 171.917 7.99883C186.169 1.30279 199.561 7.92216 211.011 16.9188C228.187 30.4137 206.354 5.51621 192.246 1.22237C182.84 -1.64019 172.329 0.524927 160.712 7.7177L147.217 34.0941C86.6172 31.5869 43.2699 33.2226 17.1754 39.0014C15.6912 39.3301 11.8836 40.9042 11.6547 45.1354C9.75489 80.2525 5.86999 142.206 0 230.997C0.057441 314.398 7.3937 289.7 14.7546 286.428Z"/><path id="shape01" transform="matrix(0.999999980141482 0 0 0.999999980141482 417.690318471848 148.999740609668)" fill="#122021" fill-rule="evenodd" stroke="#000000" stroke-opacity="0" stroke-width="0" stroke-linecap="square" stroke-linejoin="bevel" d="M164.86 359.042C72.3958 201.822 -0.895295 50.2402 0.00826529 22.2298C1.36361 -19.7857 25.3079 5.06216 46.0898 36.6868C66.8717 68.3114 44.2827 88.6415 43.3791 93.1593C42.4756 97.6771 71.8413 105.809 58.2879 105.357C49.2523 105.056 41.8732 101.291 36.1506 94.0629C40.6684 91.9546 43.2285 84.1237 43.8309 70.5703C44.7345 50.2402 43.3791 36.235 33.44 29.4583C23.5008 22.6816 8.59209 -4.87701 7.68853 23.1334C7.08616 41.807 23.1996 78.8529 56.029 134.271L147.74 307.755C177.815 380.46 171.788 364.162 164.86 359.042Z"/><path id="shape6" transform="matrix(1.00671886664721 -0.518440432347629 0.612225446681411 1.18883263989414 236.104397065157 436.595447174697)" fill="none" stroke="#122021" stroke-width="7.74" stroke-linecap="square" stroke-linejoin="miter" stroke-miterlimit="2" d="M0 58.7066L58.2988 0"/><path id="shape8" transform="matrix(0.694634245589253 -0.357722985570076 0.422434480345462 0.8202924285059 281.782205858746 458.457658374839)" fill="none" stroke="#122021" stroke-width="7.74" stroke-linecap="square" stroke-linejoin="miter" stroke-miterlimit="2" d="M0.871863 0L0 0"/><path id="shape9" transform="matrix(0.694634245589253 -0.357722985570076 0.422434480345462 0.8202924285059 262.031585834193 456.187119379407)" fill="none" stroke="#122021" stroke-width="7.74" stroke-linecap="square" stroke-linejoin="miter" stroke-miterlimit="2" d="M15.2435 22.5601L0 0"/><path id="shape02" transform="matrix(0.621737294990881 -0.316783891091041 0.374986992951805 0.733746386077734 206.167806831661 446.97444128247)" fill="#049903" fill-rule="evenodd" stroke="#000000" stroke-opacity="0" stroke-width="0" stroke-linecap="square" stroke-linejoin="bevel" d="M73.6774 43.2952L73.2258 11.668L0 0L71.5477 45.9444"/><path id="shape11" transform="matrix(0.621737294990881 -0.316783891091041 0.374986992951805 0.733746386077734 205.373015940879 446.790438995038)" fill="#005a00" fill-rule="evenodd" stroke="#000000" stroke-opacity="0" stroke-width="0" stroke-linecap="square" stroke-linejoin="bevel" d="M75.2959 46.5209L0 0L34.8932 54.9345L73.0612 46.3058"/><path id="shape04" transform="matrix(1.15644075917421 0.417708978962351 -0.225715849129561 1.22785289691588 240.275200483852 237.420778605117)" fill="#ff0055" fill-rule="evenodd" stroke="#000000" stroke-opacity="0" stroke-width="0" stroke-linecap="square" stroke-linejoin="bevel" d="M57.7027 31.6998L15.1219 0L0 60.6925L50.9918 106.797L57.7027 31.6998"/><path id="shape12" transform="matrix(1.15644075917421 0.417708978962351 -0.225715849129561 1.22785289691588 326.711999955321 265.188635707475)" fill="#ff0055" fill-rule="evenodd" stroke="#000000" stroke-opacity="0" stroke-width="0" stroke-linecap="square" stroke-linejoin="bevel" d="M12.3013 98.157L0 29.1992L46.9323 0L62.6133 62.1762L12.0583 102.034L12.3013 98.157"/><path id="shape22" transform="matrix(1.15644075917421 0.417708978962351 -0.225715849129561 1.22785289691588 298.448697587738 235.777451824556)" fill="#ffca01" fill-rule="evenodd" stroke="#000000" stroke-opacity="0" stroke-width="0" stroke-linecap="square" stroke-linejoin="bevel" d="M0 114.403L19.5399 0L41.1949 117.569L21.0543 125.557L0 114.403"/><path id="shape32" transform="matrix(1.15644075917421 0.417708978962351 -0.225715849129561 1.22785289691588 311.421552044787 298.849245254128)" fill="#ff9479" fill-rule="evenodd" stroke="#000000" stroke-opacity="0" stroke-width="0" stroke-linecap="square" stroke-linejoin="bevel" d="M0 82.5374L80.4345 60.4423L94.8114 0L0 82.5374"/><path id="shape41" transform="matrix(1.15644075917421 0.417708978962351 -0.225715849129561 1.22785289691588 198.774069266538 253.061535048195)" fill="#ff9661" fill-rule="evenodd" stroke="#000000" stroke-opacity="0" stroke-width="0" stroke-linecap="square" stroke-linejoin="bevel" d="M99.1636 85.3644L0 0L19.0354 69.3359L99.1636 85.3644"/><path id="shape51" transform="matrix(1.15644075917421 0.417708978962351 -0.225715849129561 1.22785289691588 297.723302153724 354.069383136503)" fill="#ff0026" fill-rule="evenodd" stroke="#000000" stroke-opacity="0" stroke-width="0" stroke-linecap="square" stroke-linejoin="bevel" d="M2.49467 33.684L32.235 71.4342L130.915 0L0 35.9762"/><path id="shape61" transform="matrix(1.15644075917421 0.417708978962351 -0.225715849129561 1.22785289691588 151.422821010938 305.509595625182)" fill="#ff0026" fill-rule="evenodd" stroke="#000000" stroke-opacity="0" stroke-width="0" stroke-linecap="square" stroke-linejoin="bevel" d="M132.112 31.216L0 0L100.826 68.1066C111.355 55.9195 121.883 43.7323 132.412 31.5452"/><path id="shape01" transform="translate(656.05921087522, 50.8637655494836)" fill="#00aacc" fill-rule="evenodd" stroke="#000000" stroke-opacity="0" stroke-width="0" stroke-linecap="square" stroke-linejoin="bevel" d="M89.3786 26.348C61.2547 23.2283 43.0927 28.5619 34.8926 42.3486C26.6924 56.1353 30.8544 74.978 20.4786 97.0667C6.86275 102.83 -3.82155 155.785 1.31007 171.032C4.73116 181.196 9.08315 191.184 14.3661 200.996C26.4411 213.828 34.5886 217.302 47.8703 221.73C57.8316 225.051 43.7318 280.971 57.8435 279.433C64.8994 278.664 89.8271 265.493 116.258 273.021C115.313 254.631 115.26 216.502 116.241 214.106C120.167 204.521 140.242 185.362 144.092 162.881C142.582 149.069 141.534 138.277 137.45 120.917C137.789 98.7516 114.867 87.429 97.681 74.7693C91.643 70.7687 91.5691 38.8001 97.4548 30.2718C103.341 21.7435 130.055 -6.10862 117.83 1.21355C105.604 8.53572 99.5669 13.1385 94.7371 19.7049C89.9074 26.2712 90.2845 26.2712 89.3786 26.348Z"/><path id="shape0" transform="matrix(1 0 0 1.00312773987097 708.278877172941 131.38991593294)" fill="#ff0055" fill-rule="evenodd" d="M0 0L4.72084 9.91533L11.4695 0.897306C11.4695 0.897306 7.64631 0.598204 0 0Z"/><path id="shape1" transform="matrix(1 0 0 1.00312773987097 715.95796257965 138.683824343513)" fill="#ff0055" fill-rule="evenodd" d="M0 0L1.51143 10.689L4.7995 0.574231C4.7995 0.574231 3.19967 0.382821 0 0Z"/><path id="shape2" transform="matrix(1 0 0 1.00312773987097 702.618031977263 138.03565337956)" fill="#ff0055" fill-rule="evenodd" d="M3.99434 1.10127L9.05623 2.21152L3.40887 7.23521L0 0C0 0 1.33145 0.367089 3.99434 1.10127Z"/><path id="shape3" transform="matrix(1 0 0 1.00312773987097 707.271445406178 145.579249149985)" fill="#ff0055" fill-rule="evenodd" d="M7.55603 0.589963L0 10.4019L0.888316 0C0.888316 0 3.11089 0.196654 7.55603 0.589963Z"/><path id="shape4" transform="matrix(1 0 0 1.00312773987097 715.587690951475 150.810278513812)" fill="#ff0055" fill-rule="evenodd" d="M0 0.18598L9.61023 0L5.49678 13.0438C5.49678 13.0438 3.66452 8.75788 0 0.18598Z"/><path id="shape5" transform="matrix(1 0 0 1.00312773987097 725.350752002918 131.626637230608)" fill="#ff0055" fill-rule="evenodd" d="M0 0.975408L10.9514 0L8.10049 21.5955C8.10049 21.5955 5.40033 14.7221 0 0.975408Z"/><path id="shape6" transform="matrix(1 0 0 1.00312773987097 721.609817939 133.108979969878)" fill="#ff0055" fill-rule="evenodd" d="M0 0L2.93577 0.024722L1.55863 5.08437C1.55863 5.08437 1.03909 3.38958 0 0Z"/><path id="shape7" transform="matrix(1 0 0 1.00312773987097 722.071676269204 141.453491056493)" fill="#ff0055" fill-rule="evenodd" d="M0 0.226434L4.80624 0L2.34581 6.91887C2.34581 6.91887 1.56387 4.68806 0 0.226434Z"/><path id="shape8" transform="matrix(1 0 0 1.00312773987097 738.43053647214 131.203915121577)" fill="#ff0055" fill-rule="evenodd" d="M0 1.24005L11.2206 0L3.66902 9.27817C3.66902 9.27817 2.44601 6.5988 0 1.24005Z"/><path id="shape9" transform="matrix(1 0 0 1.00312773987097 737.293311198959 140.738246305174)" fill="#ff0055" fill-rule="evenodd" d="M0 0L3.73419 0.298353L2.54303 14.9682C2.54303 14.9682 1.69535 9.97882 0 0Z"/><path id="shape10" transform="matrix(1 0 0 1.00312773987097 726.805998225065 150.020635640369)" fill="#ff0055" fill-rule="evenodd" d="M0 0L3.20041 0.293858L2.53629 15.7689C2.53629 15.7689 1.69086 10.5126 0 0Z"/><path id="shape11" transform="matrix(1 0 0 1.00312773987097 732.897237323799 155.487825432753)" fill="#ff0055" fill-rule="evenodd" d="M0 0.206207L7.20824 0L2.03622 11.9673C2.03772 11.7894 1.35898 7.869 0 0.206207Z"/><path id="shape12" transform="matrix(1 0 0 1.00312773987097 745.557865185373 141.415725620267)" fill="#ff0055" fill-rule="evenodd" d="M0 0.461858L8.54493 0L4.74106 7.97519C4.74106 7.97519 3.16071 5.47075 0 0.461858Z"/><path id="shape13" transform="matrix(1 0 0 1.00312773987097 742.561605894357 147.604264280562)" fill="#ff0055" fill-rule="evenodd" d="M0 0.267357L4.59274 0L3.00599 6.71936C2.80199 6.71764 1.79999 4.56697 0 0.267357Z"/><path id="shape14" transform="matrix(1 0 0 1.00312773987097 742.484298668975 156.846909949349)" fill="#ff0055" fill-rule="evenodd" d="M0 0.233858L8.57088 0L5.08107 14.6602C5.08107 14.6602 3.38738 9.8514 0 0.233858Z"/><path id="shape15" transform="matrix(1 0 0 1.00312773987097 736.52063066953 163.509732891173)" fill="#ff0055" fill-rule="evenodd" d="M3.76748 0L0 11.2915L7.66573 9.51984C7.66573 9.51984 6.36632 6.34656 3.76748 0Z"/><path id="shape16" transform="matrix(1 0 0 1.00312773987097 721.22523879059 163.367559683673)" fill="#ff0055" fill-rule="evenodd" d="M2.23227 0L0 10.6923L6.43396 9.82843C6.43396 9.82843 5.0334 6.55228 2.23227 0Z"/><path id="shape17" transform="matrix(1 0 0 1.00312773987097 729.539071615586 168.023779578089)" fill="#ff0055" fill-rule="evenodd" d="M0 0L5.81421 0.0489612L2.65102 12.2636C2.65102 12.2636 1.76735 8.17575 0 0Z"/><path id="shape18" transform="matrix(1 0 0 1.00312773987097 706.961263583848 152.226236513392)" fill="#ff0055" fill-rule="evenodd" d="M5.87863 0L0 7.60131L11.2889 11.6748C11.4912 11.8805 9.68777 7.98892 5.87863 0Z"/><path id="shape19" transform="matrix(1 0 0 1.00312773987097 709.985296017463 164.174725226919)" fill="#ff0055" fill-rule="evenodd" d="M0 0L7.23861 12.6083L7.93825 2.20908C7.93825 2.20908 5.29216 1.47272 0 0Z"/><path id="shape20" transform="matrix(1 0 0 1.00312773987097 718.741074774377 175.98943872044)" fill="#ff0055" fill-rule="evenodd" d="M0 2.37336L8.89493 0L10.3193 12.5593C10.3193 12.5593 6.87956 9.16401 0 2.37336Z"/><path id="shape21" transform="matrix(1 0 0 1.00312773987097 708.448151805664 118.441657735812)" fill="#ff0055" fill-rule="evenodd" d="M8.87174 10.4585L0 10.0777L2.53313 0C2.53313 0 4.646 3.48616 8.87174 10.4585Z"/><path id="shape22" transform="matrix(1 0 0 1.00312773987097 720.372269816906 119.187427146508)" fill="#ff0055" fill-rule="evenodd" d="M0 10.6588L9.1829 10.4301L6.21041 0C6.21041 0 4.14027 3.55295 0 10.6588Z"/><path id="shape23" transform="matrix(1 0 0 1.00312773987097 729.93849228006 120.44373393367)" fill="#ff0055" fill-rule="evenodd" d="M0 0L0.547599 7.65543L9.1056 8.95162C9.1056 8.95162 6.0704 5.96775 0 0Z"/><path id="shape24" transform="matrix(1 0 0 1.00312773987097 733.307189240245 120.165200538755)" fill="#ff0055" fill-rule="evenodd" d="M0 0L8.6395 8.54176L17.3524 8.61309C17.3524 8.61309 11.5683 5.74206 0 0Z"/><path id="shape25" transform="matrix(1 0 0 1.00312773987097 713.131084184312 113.024801711513)" fill="#ff0055" fill-rule="evenodd" d="M5.43347 13.4207L0 4.49997L10.749 0C10.749 0 8.97718 4.47356 5.43347 13.4207Z"/><path id="shape26" transform="matrix(1 0 0 1.00312773987097 736.490205056968 108.059488496458)" fill="#ff0055" fill-rule="evenodd" d="M0 10.7587L11.2568 15.9272L9.546 0C9.546 0 6.364 3.58625 0 10.7587Z"/><path id="shape27" transform="matrix(1 0 0 1.00312773987097 725.546903841718 110.61124408861)" fill="#ff0055" fill-rule="evenodd" d="M0 6.72936L0.369806 0L8.13706 7.26759C8.13706 7.26759 5.42471 7.08818 0 6.72936Z"/><path id="shape28" transform="matrix(1 0 0 1.00312773987097 728.42295693871 106.206301615045)" fill="#ff0055" fill-rule="evenodd" d="M0 4.25574L6.21618 9.78801L15.223 4.0816e-07C15.1187 -0.000878505 10.0443 1.4177 0 4.25574Z"/><path id="shape29" transform="matrix(1 0 0 1.00312773987097 735.668133237897 95.0678164688379)" fill="#ff0055" fill-rule="evenodd" d="M9.10286 8.59883L10.7888 0L0 10.2537C0 10.2537 3.03429 9.70209 9.10286 8.59883Z"/><path id="shape30" transform="matrix(1 0 0 1.00312773987097 726.831577970785 100.350196604103)" fill="#ff0055" fill-rule="evenodd" d="M6.89235 5.16185L1.88308 6.26125L0 0C0 0 2.29745 1.72062 6.89235 5.16185Z"/><path id="shape31" transform="matrix(1 0 0 1.00312773987097 730.901907019397 96.4148874934184)" fill="#ff0055" fill-rule="evenodd" d="M0 3.45054L8.92175 0L3.91592 6.10943C3.91599 6.21381 2.61069 5.32751 0 3.45054Z"/><path id="shape32" transform="matrix(1 0 0 1.00312773987097 721.984146113952 101.764757519625)" fill="#ff0055" fill-rule="evenodd" d="M3.28277 0L4.69561 5.47875L0 7.36075C0 7.36075 1.09426 4.90717 3.28277 0Z"/><path id="shape33" transform="matrix(1 0 0 1.00312773987097 735.479740466367 39.7776322774197)" fill="#122021" fill-rule="evenodd" d="M2.12427 49.1591L9.45692 46.9785L14.9224 43.5199L40.1204 13.4146L51.4288 0C36.4879 9.58258 26.5439 16.4153 21.5969 20.498C16.65 24.5808 9.45098 33.591 0 47.5286C0 47.5286 0.708089 48.0721 2.12427 49.1591Z"/><path id="shape34" transform="translate(695.093421192193, 142.1147504867)" fill="#ff0055" fill-rule="evenodd" d="M4.63189 0L8.09209 3.36451L0 13.0158L4.63189 0"/><path id="shape35" transform="translate(696.914239109071, 147.480817390581)" fill="#ff0055" fill-rule="evenodd" d="M6.81864 0L0 8.92241L7.46132 8.28029L6.81864 0"/><path id="shape36" transform="translate(685.369085947121, 159.045649668418)" fill="#ff0055" fill-rule="evenodd" d="M6.45114 0L0 14.018L7.18845 13.5581L6.45114 0"/><path id="shape37" transform="translate(693.640351716745, 159.317387297157)" fill="#ff0055" fill-rule="evenodd" d="M0 0L1.19192 13.0118L13.1125 12.9126L0 0"/><path id="shape38" transform="translate(697.917650607708, 159.951420873431)" fill="#ff0055" fill-rule="evenodd" d="M0 0L7.28001 0.358974L10.1071 9.27474L0 0"/><path id="shape39" transform="translate(676.555974400955, 174.520220412821)" fill="#ff0055" fill-rule="evenodd" d="M7.90414 0L0 18.2959L12.7277 1.08864L7.90414 0"/><path id="shape40" transform="translate(691.118381361299, 175.698293297664)" fill="#ff0055" fill-rule="evenodd" d="M0.44032 0L0 21.2936L6.0822 0.0871113L0.44032 0"/><path id="shape41" transform="translate(697.397364117361, 175.875022871209)" fill="#ff0055" fill-rule="evenodd" d="M1.80521 0L8.90323 0.3591L0 21.3856L1.80521 0"/><path id="shape42" transform="translate(691.403092165161, 198.265430203411)" fill="#ff0055" fill-rule="evenodd" d="M0.353146 0L6.08602 0.0870487L0 15.7427L0.353146 0"/><path id="shape43" transform="translate(706.406570991243, 180.782720342519)" fill="#ff0055" fill-rule="evenodd" d="M1.7171 0L6.35813 0.269795L0 17.1996L1.7171 0"/><path id="shape44" transform="translate(699.493429314218, 185.88087263062)" fill="#ff0055" fill-rule="evenodd" d="M5.26686 0L0 15.9281L5.27532 12.2846L5.26686 0"/><path id="shape45" transform="translate(708.227148675102, 170.333991701793)" fill="#ff0055" fill-rule="evenodd" d="M0 7.39964L6.42521 7.58992L1.5525 0L0 7.39964"/><path id="shape46" transform="translate(752.383588045698, 166.609211541566)" fill="#ff0055" fill-rule="evenodd" d="M0 2.84265L9.39306 11.3502L6.76556 0L0 2.84265"/><path id="shape47" transform="translate(752.163326551071, 153.950419168314)" fill="#ff0055" fill-rule="evenodd" d="M0 12.6636L2.61096 0L5.89278 10.4765L0 12.6636"/><path id="shape48" transform="translate(754.334968488406, 146.305618544829)" fill="#ff0055" fill-rule="evenodd" d="M0 3.71558L11.3548 7.85559L6.32834 0L0 3.71558"/><path id="shape49" transform="translate(755.266881432135, 131.273432358085)" fill="#ff0055" fill-rule="evenodd" d="M0 12.0079L1.51988 0L7.19841 3.70731L0 12.0079"/><path id="shape50" transform="translate(745.595325631514, 130.374027115517)" fill="#ff0055" fill-rule="evenodd" d="M0 8.95615L8.07751 9.16889L8.07119 0L0 8.95615"/><path id="shape51" transform="translate(760.523010686726, 137.289097029625)" fill="#ff0055" fill-rule="evenodd" d="M0 3.71392L3.92697 0L4.37065 10.2601L0 3.71392"/><path id="shape52" transform="translate(756.959161767982, 156.568598271398)" fill="#ff0055" fill-rule="evenodd" d="M0 0L8.30889 19.2053L11.1424 12.6541L0 0"/><path id="shape53" transform="translate(760.234065785815, 157.002956729747)" fill="#ff0055" fill-rule="evenodd" d="M0 0L12.4527 13.3081L13.1005 3.04728L0 0"/><path id="shape54" transform="translate(766.7882662485, 137.634108033177)" fill="#ff0055" fill-rule="evenodd" d="M0.0115773 16.8096L6.56139 17.6783L0 0L0.0115773 16.8096"/><path id="shape55" transform="translate(771.531091096264, 142.010884147752)" fill="#ff0055" fill-rule="evenodd" d="M0 0L5.17222 14.2923L13.9087 14.551L0 0"/><path id="shape56" transform="translate(775.215389756578, 160.709953600985)" fill="#ff0055" fill-rule="evenodd" d="M0.655826 0L0 8.73679L10.5895 8.72949L0.655826 0"/><path id="shape57" transform="translate(779.779566007883, 159.554017428736)" fill="#ff0055" fill-rule="evenodd" d="M0 0L7.67765 0.391818L8.47761 8.73049L0 0"/><path id="shape58" transform="translate(761.853178540358, 177.923435843851)" fill="#ff0055" fill-rule="evenodd" d="M0 1.72489L5.9554 0L10.3326 13.1015L0 1.72489"/><path id="shape59" transform="translate(767.939400253568, 173.153698240693)" fill="#ff0055" fill-rule="evenodd" d="M0 2.51938L6.35196 0L6.62837 16.943L0 2.51938"/><path id="shape60" transform="translate(776.72045968666, 172.984412803867)" fill="#ff0055" fill-rule="evenodd" d="M0 0.00321917L1.39678 22.9477L4.67407 0L0 0.00321917"/><path id="shape61" transform="translate(782.775651877078, 173.195919434899)" fill="#ff0055" fill-rule="evenodd" d="M0 0L4.8866 0.102863L7.0231 17.4167L0 0"/><path id="shape62" transform="translate(789.362061604542, 173.295929457342)" fill="#ff0055" fill-rule="evenodd" d="M0 0.21414L2.44312 0L5.21648 16.5698L0 0.21414"/><path id="shape63" transform="translate(781.408723794543, 178.507875316455)" fill="#ff0055" fill-rule="evenodd" d="M0.626984 0L0 15.0849L5.52185 12.1067L0.626984 0"/><path id="shape64" transform="translate(780.667316559907, 195.715636103111)" fill="#ff0055" fill-rule="evenodd" d="M0 1.06456L3.29236 0L9.35436 10.0876L0 1.06456"/><path id="shape65" transform="translate(785.871433981327, 193.373845264181)" fill="#ff0055" fill-rule="evenodd" d="M0 1.80933L4.99151 0L7.87045 15.6137L0 1.80933"/><path id="shape66" transform="translate(792.775140236825, 193.264397218726)" fill="#ff0055" fill-rule="evenodd" d="M0 0.21436L2.7618 0L3.0881 11.0476L0 0.21436"/><path id="shape67" transform="translate(731.367959255255, 251.062440677492)" fill="#122021" fill-rule="evenodd" d="M12.6587 26.9453C15.9444 28.5384 15.6843 2.39731 17.1145 0.404657C19.8182 0.27365 21.1016 -0.493127 22.9649 0.505207C22.3915 7.84916 18.0141 38.9769 13.3558 39.6213C10.1653 37.2578 -2.29701 3.49361 0.371894 1.37838C3.69168 0.877581 4.39218 -0.901662 7.22949 0.976847"/><path id="shape02" transform="matrix(0.999999991178224 0 0 0.999999991178224 712.417705024566 246.281457628778)" fill="#122021" fill-rule="evenodd" stroke="#000000" stroke-opacity="0" stroke-width="0" stroke-linecap="square" stroke-linejoin="bevel" d="M31.6817 55.7046C34.2903 56.7176 40.7914 41.9525 43.9789 27.5559C47.1664 13.1592 49.3093 1.34432 50.4448 0.0772953C54.7381 -0.0893043 55.4243 -0.0919973 58.383 1.17758C57.4725 10.5168 40.2191 67.9556 32.8222 68.7751C27.7558 65.7694 -3.84817 4.36523 0.389831 1.67531C5.66138 1.03844 3.98462 0.386551 8.49003 2.77544"/><path id="shape68" transform="translate(707.271945196588, 316.696511670253)" fill="#ff0055" fill-rule="evenodd" d="M0 0L1.33815 11.4394L8.52053 9.83815L0 0"/><path id="shape69" transform="translate(717.956017265269, 308.96013256232)" fill="#ff0055" fill-rule="evenodd" d="M0 16.4054L6.67226 14.8715L0.266756 0L0 16.4054"/><path id="shape70" transform="translate(725.303980341496, 295.608615407147)" fill="#ff0055" fill-rule="evenodd" d="M1.26954 26.5534L15.0316 24.1804L0 0L1.26954 26.5534"/><path id="shape71" transform="translate(706.130067558227, 309.51844460655)" fill="#ff0055" fill-rule="evenodd" d="M9.1829 13.6245L0 3.34279L8.89546 0L9.1829 13.6245"/><path id="shape72" transform="translate(714.044864634105, 294.637146901691)" fill="#ff0055" fill-rule="evenodd" d="M9.74418 21.8266L0 4.03783L8.75595 0L9.74418 21.8266"/><path id="shape73" transform="translate(706.266892690427, 289.781910925187)" fill="#ff0055" fill-rule="evenodd" d="M8.89584 17.0949L0 19.8816L0.959499 0L8.89584 17.0949"/><path id="shape74" transform="translate(707.808816335787, 275.370320365178)" fill="#ff0055" fill-rule="evenodd" d="M5.38069 20.3291L0 12.3868L0.692584 0L5.38069 20.3291"/><path id="shape75" transform="translate(710.132023475701, 267.656929773687)" fill="#ff0055" fill-rule="evenodd" d="M4.22472 26.1721L12.4029 24.0631L0 0L4.22472 26.1721"/><path id="shape76" transform="translate(749.210717694289, 304.029611186091)" fill="#ff0055" fill-rule="evenodd" d="M0 15.5941L12.7137 15.9954L14.3431 0L0 15.5941"/><path id="shape77" transform="translate(764.231440606684, 295.416818338331)" fill="#ff0055" fill-rule="evenodd" d="M4.93865 25.1501L0.563761 24.6063L0 0L4.93865 25.1501"/><path id="shape78" transform="translate(753.851387866106, 296.923193365115)" fill="#ff0055" fill-rule="evenodd" d="M0 12.1711L6.55339 0L8.74441 5.46663L0 12.1711"/><path id="shape79" transform="translate(764.63552546955, 285.297650463785)" fill="#ff0055" fill-rule="evenodd" d="M3.15699 19.9594L0 1.36986L4.10016 0L4.2509 20.3687L3.15699 19.9594"/><path id="shape80" transform="translate(765.471150116381, 269.498523519894)" fill="#ff0055" fill-rule="evenodd" d="M0 14.6281L3.33571 0L4.01434 13.765L0 14.6281"/><ellipse id="shape81" transform="matrix(1.26609076705328 0 0 1.26609076705328 695.028957814823 89.9503600904313)" rx="10.5" ry="9.5" cx="10.5" cy="9.5" fill="#122021" fill-rule="evenodd"/><circle id="shape82" transform="translate(701, 94)" r="5" cx="5" cy="5" fill="#f7fbfd" fill-rule="evenodd"/><circle id="shape83" transform="translate(714.016389059979, 102.053779114236)" r="2" cx="2" cy="2" fill="#f7fbfd" fill-rule="evenodd"/><circle id="shape03" transform="matrix(0.99999997602383 0 0 0.99999997602383 710.934363307091 107.897603655341)" r="1.35425449383951" cx="1.35425449383951" cy="1.35425449383951" fill="#f7fbfd" fill-rule="evenodd" stroke="#000000" stroke-opacity="0" stroke-width="0" stroke-linecap="square" stroke-linejoin="bevel"/>
</svg>
